<svg xmlns="http://www.w3.org/2000/svg" width="24" height="24" viewBox="0 0 24 24" fill="none" stroke="#e8d88a" stroke-width="1.1" stroke-linecap="round" stroke-linejoin="round"><circle cx="12" cy="12" r="8.5"></circle><path d="M12 3.5V20.5"></path><path d="M12 3.5C7.6 6 7.6 18 12 20.5M12 3.5C16.4 6 16.4 18 12 20.5"></path><path d="M3.5 12H20.5"></path><path d="M4.7 8.2C8 7.2 16 7.2 19.3 8.2M4.7 15.8C8 16.8 16 16.8 19.3 15.8"></path><path fill="#e8d88a" stroke="none" d="M8.6 7.8c1 .2 1.4 1 .8 1.7.7.2 1 .9.4 1.4.5.6.1 1.4-.6 1.9l-.9 1.6c-.4-.9-.9-1-1.4-1.9-.5-.9.2-1.5-.4-2.2-.5-.6-.1-1.6.9-1.9 .3-.4.4-.5.8-.6Z"></path><path fill="#e8d88a" stroke="none" d="M13.4 8c1.6-.3 3.2.2 3.6 1-.8.2-1.2.3-2 .3.6.6.2 1.4-.6 1.5.4.7-.2 1.5-1 1.4l-1.2 1.3c-.2-1-.7-1.3-.6-2.4.1-1 .9-1 .8-2 0-.5.5-1 .9-1.4l-.3.3Z"></path></svg>